<svg xmlns="http://www.w3.org/2000/svg" width="46" height="47" viewBox="0 0 46 47" style="transform:scale(0.5)">
  <g id="arrow-back" transform="translate(-0.351 -0.022)">
    <rect id="Rectangle_855" data-name="Rectangle 855" width="47" height="46" transform="translate(46.351 0.022) rotate(90)" fill="#fff" opacity="0"/>
    <path id="Path_3739" data-name="Path 3739" d="M5.951,16.707H29.09L22.008,8.2a1.953,1.953,0,0,1,3-2.5L34.767,17.41a2.321,2.321,0,0,1,.176.293.247.247,0,0,0,.137.254,1.874,1.874,0,0,1,0,1.4.247.247,0,0,1-.137.254,2.321,2.321,0,0,1-.176.293L25.012,31.613a1.953,1.953,0,1,1-3-2.5l7.082-8.506H5.951a1.951,1.951,0,0,1,0-3.9Z" transform="translate(3.541 5.199)" fill="#fff"/>
  </g>
</svg>
