<svg xmlns="http://www.w3.org/2000/svg" width="89.8" height="80.737" viewBox="0 0 89.8 80.737">
  <g id="react" transform="translate(-0.754 -0.785)">
    <path id="Path_427" data-name="Path 427" d="M.754,41.008c0,6.782,6.622,13.113,17.062,16.681-2.085,10.5-.373,18.955,5.342,22.251,5.875,3.388,14.627,1.043,22.934-6.219,8.1,6.969,16.281,9.711,21.992,6.405,5.869-3.4,7.654-12.431,5.512-23.255,10.874-3.6,16.957-8.993,16.957-15.865,0-6.624-6.634-12.355-16.934-15.9,2.307-11.271.352-19.525-5.6-22.957C62.281-1.159,54,1.725,45.786,8.876,37.237,1.286,29.04-1.031,23.094,2.411c-5.733,3.319-7.369,11.932-5.278,22.622C7.729,28.55.754,34.411.754,41.008Z" transform="translate(0 0)" fill="#fff"/>
    <path id="Path_428" data-name="Path 428" d="M80.814,37.512q-1.273-.437-2.567-.809.215-.872.4-1.751c1.943-9.434.673-17.033-3.666-19.535-4.16-2.4-10.964.1-17.836,6.082q-1.016.886-1.986,1.822-.649-.622-1.321-1.22c-7.2-6.395-14.421-9.089-18.755-6.58-4.156,2.406-5.387,9.551-3.638,18.491q.261,1.328.589,2.641c-1.021.29-2.008.6-2.952.928-8.443,2.944-13.835,7.557-13.835,12.343,0,4.943,5.788,9.9,14.583,12.906q1.07.364,2.157.674-.353,1.415-.626,2.847c-1.668,8.785-.365,15.76,3.78,18.151,4.282,2.469,11.468-.069,18.465-6.185q.83-.725,1.664-1.534,1.05,1.013,2.156,1.967c6.778,5.832,13.472,8.188,17.614,5.79,4.278-2.476,5.668-9.97,3.863-19.087q-.206-1.045-.478-2.132.757-.223,1.483-.463c9.143-3.029,15.091-7.926,15.091-12.935,0-4.8-5.566-9.447-14.179-12.412Z" transform="translate(-9.375 -8.884)" fill="#53c1de"/>
    <path id="Path_429" data-name="Path 429" d="M85.076,65.857c-.436.144-.883.284-1.339.419a79.96,79.96,0,0,0-4.038-10.1,79.927,79.927,0,0,0,3.881-9.956c.816.236,1.608.485,2.371.748,7.38,2.54,11.882,6.3,11.882,9.191,0,3.083-4.862,7.085-12.755,9.7ZM81.8,72.347a28.849,28.849,0,0,1,.383,10.526c-.475,2.56-1.43,4.267-2.611,4.951-2.513,1.455-7.888-.436-13.684-5.424q-1-.858-2.005-1.828a80.059,80.059,0,0,0,6.685-8.488,79.53,79.53,0,0,0,10.8-1.665Q81.613,71.4,81.8,72.347ZM48.677,87.572c-2.455.867-4.411.892-5.593.21-2.516-1.451-3.561-7.052-2.135-14.564q.254-1.332.582-2.648a80.111,80.111,0,0,0,10.747,1.556,82.9,82.9,0,0,0,6.846,8.458q-.742.718-1.519,1.4a28.854,28.854,0,0,1-8.927,5.589Zm-11.5-21.734a28.861,28.861,0,0,1-9.3-4.941C25.894,59.2,24.9,57.521,24.9,56.156c0-2.9,4.33-6.608,11.55-9.125q1.36-.472,2.745-.864a81.708,81.708,0,0,0,3.887,10.072,82.948,82.948,0,0,0-3.935,10.215q-.992-.284-1.969-.616ZM41.03,39.589c-1.5-7.66-.5-13.438,2-14.888,2.668-1.544,8.568.658,14.786,6.179.4.353.8.722,1.2,1.1a81.642,81.642,0,0,0-6.793,8.407,83.245,83.245,0,0,0-10.642,1.654q-.3-1.222-.548-2.457Zm34.4,8.494q-1.169-2.02-2.425-3.988c2.545.321,4.983.748,7.272,1.271a72.671,72.671,0,0,1-2.553,6.867q-1.105-2.1-2.294-4.15ZM61.4,34.42a72.86,72.86,0,0,1,4.693,5.665q-4.71-.223-9.426,0C58.218,38.04,59.806,36.142,61.4,34.42ZM47.283,48.107q-1.174,2.035-2.251,4.124c-.992-2.353-1.841-4.667-2.534-6.9,2.275-.509,4.7-.925,7.23-1.241q-1.269,1.98-2.445,4.018ZM49.8,68.466a72.543,72.543,0,0,1-7.35-1.182c.7-2.274,1.572-4.637,2.585-7.041q1.082,2.09,2.261,4.127,1.2,2.077,2.5,4.1Zm11.7,9.667c-1.615-1.742-3.225-3.67-4.8-5.742q2.29.09,4.666.09,2.439,0,4.814-.107A72.452,72.452,0,0,1,61.5,78.133ZM77.757,60.121a72.354,72.354,0,0,1,2.678,7.015A72.3,72.3,0,0,1,73,68.4q1.264-2,2.448-4.058,1.2-2.087,2.313-4.225Zm-5.264,2.524q-1.812,3.148-3.826,6.173c-2.366.169-4.811.256-7.3.256s-4.9-.077-7.221-.228q-2.065-3.016-3.9-6.183-1.823-3.147-3.4-6.426,1.575-3.277,3.392-6.429h0q1.816-3.15,3.867-6.156c2.372-.179,4.8-.273,7.262-.273s4.9.095,7.275.275q2.029,3,3.843,6.135t3.438,6.4q-1.6,3.288-3.427,6.455ZM79.521,24.6c2.67,1.54,3.709,7.751,2.031,15.9q-.165.8-.359,1.585A81.615,81.615,0,0,0,70.53,40.4a80.034,80.034,0,0,0-6.741-8.414q.9-.864,1.834-1.682c5.888-5.124,11.391-7.147,13.9-5.7Z" transform="translate(-15.621 -15.115)" fill="#fff"/>
    <path id="Path_430" data-name="Path 430" d="M115.165,94.665a7.122,7.122,0,1,1-7.121,7.121,7.121,7.121,0,0,1,7.121-7.121" transform="translate(-69.422 -60.746)" fill="#53c1de"/>
  </g>
</svg>
