<svg xmlns="http://www.w3.org/2000/svg" xmlns:xlink="http://www.w3.org/1999/xlink" width="61.043" height="61.042" viewBox="0 0 61.043 61.042">
  <defs>
    <filter id="Ellipse_60" x="0" y="0" width="61.043" height="61.042" filterUnits="userSpaceOnUse">
      <feOffset dy="3" input="SourceAlpha"/>
      <feGaussianBlur stdDeviation="3" result="blur"/>
      <feFlood flood-opacity="0.161"/>
      <feComposite operator="in" in2="blur"/>
      <feComposite in="SourceGraphic"/>
    </filter>
    <filter id="Ellipse_61" x="4.269" y="1.269" width="52.505" height="52.505" filterUnits="userSpaceOnUse">
      <feOffset input="SourceAlpha"/>
      <feGaussianBlur stdDeviation="3" result="blur-2"/>
      <feFlood flood-color="#fff" flood-opacity="0.569"/>
      <feComposite operator="in" in2="blur-2"/>
      <feComposite in="SourceGraphic"/>
    </filter>
    <filter id="_01" x="11.847" y="9.151" width="36.416" height="42.311" filterUnits="userSpaceOnUse">
      <feOffset dy="3" input="SourceAlpha"/>
      <feGaussianBlur stdDeviation="3" result="blur-3"/>
      <feFlood flood-opacity="0.161"/>
      <feComposite operator="in" in2="blur-3"/>
      <feComposite in="SourceGraphic"/>
    </filter>
  </defs>
  <g id="Group_1767" data-name="Group 1767" transform="translate(9 6)">
    <g transform="matrix(1, 0, 0, 1, -9, -6)" filter="url(#Ellipse_60)">
      <ellipse id="Ellipse_60-2" data-name="Ellipse 60" cx="21.155" cy="21.155" rx="21.155" ry="21.155" transform="matrix(1, -0.02, 0.02, 1, 9, 6.74)" fill="#3943b7" opacity="0.9"/>
    </g>
    <g transform="matrix(1, 0, 0, 1, -9, -6)" filter="url(#Ellipse_61)">
      <ellipse id="Ellipse_61-2" data-name="Ellipse 61" cx="16.959" cy="16.959" rx="16.959" ry="16.959" transform="matrix(1, -0.02, 0.02, 1, 13.27, 10.86)" fill="#3943b7" opacity="0.9"/>
    </g>
    <g transform="matrix(1, 0, 0, 1, -9, -6)" filter="url(#_01)">
      <text id="_01-2" data-name="01" transform="matrix(1, -0.02, 0.02, 1, 30.16, 33.31)" fill="#fff" font-size="17" font-family="Poppins-Medium, Poppins" font-weight="500" opacity="0.9"><tspan x="-8.424" y="0">01</tspan></text>
    </g>
  </g>
</svg>
